<svg xmlns="http://www.w3.org/2000/svg" viewBox="0 0 612 497.12">
  <title>bird-body</title>
  <g id="Layer_2" data-name="Layer 2">
    <g id="bird">
      <path id="bird-body" d="M612,58.82a250.68,250.68,0,0,1-72.09,19.77A126.11,126.11,0,0,0,595.1,9.18a253.14,253.14,0,0,1-79.78,30.48A125.64,125.64,0,0,0,301.39,154.12L185.86,388.7A251.92,251.92,0,0,1,29.94,442.35,266.59,266.59,0,0,1,0,440.63a354.82,354.82,0,0,0,192.44,56.49c231,0,357.19-191.29,357.19-357.19l-.43-16.25A250.69,250.69,0,0,0,612,58.82Z" fill="#010002"/>
    </g>
  </g>
</svg>
